<svg width="15" height="19" viewBox="0 0 15 19" fill="none" xmlns="http://www.w3.org/2000/svg">
<path d="M6.99701 18.385C6.55167 18.385 6.17167 18.2267 5.85701 17.91C5.54234 17.594 5.38501 17.214 5.38501 16.77H8.61501C8.61501 17.2167 8.45667 17.5977 8.14001 17.913C7.82267 18.2277 7.44167 18.385 6.99701 18.385ZM0.500007 15.769C0.358007 15.769 0.23934 15.721 0.144007 15.625C0.0486736 15.529 0.000673516 15.41 6.84931e-06 15.268C-0.000659817 15.126 0.0473402 15.0073 0.144007 14.912C0.240674 14.8167 0.35934 14.769 0.500007 14.769H1.61601V6.846C1.61601 5.53933 2.02934 4.39033 2.85601 3.399C3.68267 2.40767 4.73067 1.79 6.00001 1.546V1C6.00001 0.722 6.09701 0.486 6.29101 0.292C6.48501 0.0973334 6.72067 0 6.99801 0C7.27534 0 7.51167 0.0973334 7.70701 0.292C7.90234 0.486667 8.00001 0.722667 8.00001 1V1.075C7.85534 1.301 7.72867 1.52867 7.62001 1.758C7.51134 1.98733 7.42634 2.23133 7.36501 2.49L7.18701 2.47C7.12901 2.46467 7.06667 2.462 7.00001 2.462C5.78467 2.462 4.75001 2.88867 3.89601 3.742C3.04201 4.59533 2.61534 5.63 2.61601 6.846V14.769H11.385V8.691C11.5437 8.721 11.7073 8.74467 11.876 8.762C12.0447 8.77933 12.214 8.78167 12.384 8.769V14.769H13.5C13.642 14.769 13.7607 14.817 13.856 14.913C13.952 15.009 14 15.128 14 15.27C14 15.412 13.952 15.5307 13.856 15.626C13.76 15.7213 13.6413 15.769 13.5 15.769H0.500007ZM11.964 6.404C11.27 6.404 10.6793 6.161 10.192 5.675C9.70467 5.189 9.46134 4.59933 9.46201 3.906C9.46267 3.21267 9.70534 2.622 10.19 2.134C10.6747 1.646 11.2647 1.40267 11.96 1.404C12.6553 1.40533 13.2453 1.648 13.73 2.132C14.2147 2.616 14.4587 3.206 14.462 3.902C14.4653 4.598 14.2223 5.18833 13.733 5.673C13.2437 6.15767 12.6537 6.401 11.963 6.403" fill="black"/>
</svg>
