<svg width="20" height="20" viewBox="0 0 20 20" fill="none" xmlns="http://www.w3.org/2000/svg">
<path d="M12.0001 3C12.0001 2.46957 11.7894 1.96086 11.4143 1.58579C11.0392 1.21071 10.5305 1 10.0001 1C9.46964 1 8.96093 1.21071 8.58586 1.58579C8.21079 1.96086 8.00007 2.46957 8.00007 3M6.99207 13H12.9921M17.2601 7.696L18.6451 16.696C18.6889 16.9808 18.6706 17.2718 18.5915 17.5489C18.5124 17.8261 18.3743 18.0828 18.1868 18.3016C17.9992 18.5204 17.7666 18.6961 17.5048 18.8167C17.243 18.9372 16.9583 18.9997 16.6701 19H3.33007C3.04171 19 2.75674 18.9377 2.49472 18.8173C2.23269 18.6969 1.9998 18.5212 1.81202 18.3024C1.62423 18.0836 1.48599 17.8267 1.40678 17.5494C1.32756 17.2721 1.30924 16.981 1.35307 16.696L2.73807 7.696C2.81072 7.22359 3.05015 6.79282 3.413 6.4817C3.77584 6.17059 4.23811 5.9997 4.71607 6H15.2841C15.7619 5.99994 16.2239 6.17094 16.5865 6.48203C16.9492 6.79312 17.1874 7.22376 17.2601 7.696Z" stroke="black" stroke-width="1.5" stroke-linecap="round" stroke-linejoin="round"/>
<path d="M12.0001 3C12.0001 2.46957 11.7894 1.96086 11.4143 1.58579C11.0392 1.21071 10.5305 1 10.0001 1C9.46964 1 8.96093 1.21071 8.58586 1.58579C8.21079 1.96086 8.00007 2.46957 8.00007 3M6.99207 13H12.9921M17.2601 7.696L18.6451 16.696C18.6889 16.9808 18.6706 17.2718 18.5915 17.5489C18.5124 17.8261 18.3743 18.0828 18.1868 18.3016C17.9992 18.5204 17.7666 18.6961 17.5048 18.8167C17.243 18.9372 16.9583 18.9997 16.6701 19H3.33007C3.04171 19 2.75674 18.9377 2.49472 18.8173C2.23269 18.6969 1.9998 18.5212 1.81202 18.3024C1.62423 18.0836 1.48599 17.8267 1.40678 17.5494C1.32756 17.2721 1.30924 16.981 1.35307 16.696L2.73807 7.696C2.81072 7.22359 3.05015 6.79282 3.413 6.4817C3.77584 6.17059 4.23811 5.9997 4.71607 6H15.2841C15.7619 5.99994 16.2239 6.17094 16.5865 6.48203C16.9492 6.79312 17.1874 7.22376 17.2601 7.696Z" stroke="black" stroke-opacity="0.2" stroke-width="1.5" stroke-linecap="round" stroke-linejoin="round"/>
<path d="M12.0001 3C12.0001 2.46957 11.7894 1.96086 11.4143 1.58579C11.0392 1.21071 10.5305 1 10.0001 1C9.46964 1 8.96093 1.21071 8.58586 1.58579C8.21079 1.96086 8.00007 2.46957 8.00007 3M6.99207 13H12.9921M17.2601 7.696L18.6451 16.696C18.6889 16.9808 18.6706 17.2718 18.5915 17.5489C18.5124 17.8261 18.3743 18.0828 18.1868 18.3016C17.9992 18.5204 17.7666 18.6961 17.5048 18.8167C17.243 18.9372 16.9583 18.9997 16.6701 19H3.33007C3.04171 19 2.75674 18.9377 2.49472 18.8173C2.23269 18.6969 1.9998 18.5212 1.81202 18.3024C1.62423 18.0836 1.48599 17.8267 1.40678 17.5494C1.32756 17.2721 1.30924 16.981 1.35307 16.696L2.73807 7.696C2.81072 7.22359 3.05015 6.79282 3.413 6.4817C3.77584 6.17059 4.23811 5.9997 4.71607 6H15.2841C15.7619 5.99994 16.2239 6.17094 16.5865 6.48203C16.9492 6.79312 17.1874 7.22376 17.2601 7.696Z" stroke="black" stroke-opacity="0.2" stroke-width="1.5" stroke-linecap="round" stroke-linejoin="round"/>
</svg>
