<svg width="22" height="19" viewBox="0 0 22 19" fill="none" xmlns="http://www.w3.org/2000/svg">
<path d="M21 5V3C21 2.46957 20.7893 1.96086 20.4142 1.58579C20.0391 1.21071 19.5304 1 19 1H3C2.46957 1 1.96086 1.21071 1.58579 1.58579C1.21071 1.96086 1 2.46957 1 3V13C1 13.5304 1.21071 14.0391 1.58579 14.4142C1.96086 14.7893 2.46957 15 3 15H11M21 5H5M21 5V7" stroke="black" stroke-width="1.5" stroke-linecap="round" stroke-linejoin="round"/>
<path d="M17.992 10.125L20.548 10.774C20.814 10.842 21.001 11.084 20.993 11.358C20.821 17.116 17.5 18 17.5 18C17.5 18 14.179 17.116 14.007 11.358C14.0042 11.2247 14.0467 11.0944 14.1275 10.9883C14.2084 10.8823 14.3227 10.8067 14.452 10.774L17.008 10.125C17.331 10.043 17.669 10.043 17.992 10.125Z" stroke="black" stroke-width="1.5" stroke-linecap="round" stroke-linejoin="round"/>
</svg>
