<svg width="450" height="460" viewBox="0 0 450 460" fill="none" xmlns="http://www.w3.org/2000/svg">
<path d="M231.29 166.31C218.159 165.013 204.948 167.807 193.466 174.308C181.983 180.81 172.791 190.701 167.148 202.629C161.505 214.556 159.686 227.937 161.941 240.937C164.196 253.938 170.415 265.925 179.745 275.255C189.075 284.585 201.062 290.804 214.063 293.059C227.064 295.314 240.444 293.495 252.371 287.852C264.299 282.209 274.19 273.017 280.692 261.534C287.193 250.052 289.987 236.841 288.69 223.71C287.212 208.99 280.689 195.233 270.228 184.772C259.767 174.311 246.01 167.788 231.29 166.31ZM385.39 230C385.35 236.957 384.839 243.903 383.86 250.79L429.07 286.25C431.039 287.882 432.365 290.159 432.814 292.676C433.262 295.194 432.804 297.789 431.52 300L388.75 374C387.451 376.19 385.421 377.851 383.017 378.691C380.613 379.531 377.99 379.495 375.61 378.59L330.71 360.51C328.234 359.524 325.552 359.168 322.905 359.473C320.257 359.779 317.727 360.736 315.54 362.26C308.688 366.979 301.487 371.171 294 374.8C291.646 375.944 289.61 377.65 288.072 379.767C286.534 381.884 285.541 384.348 285.18 386.94L278.45 434.83C278.008 437.359 276.701 439.656 274.753 441.329C272.805 443.001 270.337 443.946 267.77 444H182.23C179.705 443.956 177.271 443.054 175.328 441.442C173.385 439.829 172.049 437.603 171.54 435.13L164.82 387.31C164.443 384.689 163.424 382.203 161.854 380.071C160.283 377.939 158.211 376.228 155.82 375.09C148.342 371.482 141.165 367.278 134.36 362.52C132.181 361.004 129.659 360.054 127.021 359.755C124.383 359.457 121.713 359.819 119.25 360.81L74.3601 378.88C71.9811 379.786 69.3589 379.823 66.9551 378.985C64.5514 378.148 62.5205 376.488 61.2201 374.3L18.4501 300.3C17.1642 298.089 16.7047 295.494 17.1533 292.976C17.602 290.458 18.9297 288.181 20.9001 286.55L59.1101 256.55C61.2034 254.888 62.8487 252.73 63.8964 250.271C64.9442 247.812 65.3614 245.131 65.1101 242.47C64.7501 238.3 64.5301 234.14 64.5301 229.97C64.5301 225.8 64.7401 221.7 65.1101 217.62C65.3339 214.975 64.8963 212.316 63.8367 209.883C62.777 207.449 61.1287 205.318 59.0401 203.68L20.8501 173.68C18.9117 172.041 17.6119 169.772 17.1786 167.271C16.7453 164.77 17.206 162.196 18.4801 160L61.2501 86C62.5489 83.8099 64.5792 82.1486 66.9831 81.3089C69.3869 80.4692 72.01 80.505 74.3901 81.41L119.29 99.49C121.766 100.476 124.448 100.832 127.096 100.527C129.743 100.221 132.274 99.2637 134.46 97.74C141.313 93.0213 148.513 88.8293 156 85.2C158.354 84.056 160.39 82.35 161.928 80.2328C163.466 78.1155 164.459 75.6521 164.82 73.06L171.55 25.17C171.992 22.6408 173.299 20.3436 175.247 18.6711C177.195 16.9985 179.663 16.0544 182.23 16H267.77C270.295 16.0437 272.729 16.946 274.672 18.5583C276.615 20.1707 277.951 22.3968 278.46 24.87L285.18 72.69C285.557 75.3107 286.576 77.7975 288.147 79.9294C289.717 82.0613 291.789 83.7722 294.18 84.91C301.659 88.5184 308.835 92.7219 315.64 97.48C317.819 98.9961 320.341 99.9463 322.979 100.245C325.617 100.543 328.287 100.181 330.75 99.19L375.64 81.12C378.019 80.2141 380.641 80.1768 383.045 81.0146C385.449 81.8524 387.48 83.5117 388.78 85.7L431.55 159.7C432.836 161.911 433.295 164.506 432.847 167.024C432.398 169.542 431.07 171.819 429.1 173.45L390.89 203.45C388.788 205.106 387.133 207.262 386.076 209.721C385.019 212.18 384.595 214.865 384.84 217.53C385.17 221.67 385.39 225.83 385.39 230Z" stroke="black" stroke-width="32" stroke-linecap="round" stroke-linejoin="round"/>
</svg>
