<svg width="15" height="12" viewBox="0 0 15 12" fill="none" xmlns="http://www.w3.org/2000/svg">
<path d="M13.5 1.63636H11.2597L10.149 0.121364C10.1217 0.0840995 10.0846 0.0535333 10.0412 0.0323662C9.99777 0.0111991 9.94928 8.29404e-05 9.9 0H5.1C5.05072 8.29404e-05 5.00223 0.0111991 4.9588 0.0323662C4.91537 0.0535333 4.87835 0.0840995 4.851 0.121364L3.73875 1.63636H1.5C1.10218 1.63636 0.720644 1.78003 0.43934 2.03576C0.158035 2.29149 0 2.63834 0 3V10.6364C0 10.998 0.158035 11.3449 0.43934 11.6006C0.720644 11.8563 1.10218 12 1.5 12H13.5C13.8978 12 14.2794 11.8563 14.5607 11.6006C14.842 11.3449 15 10.998 15 10.6364V3C15 2.63834 14.842 2.29149 14.5607 2.03576C14.2794 1.78003 13.8978 1.63636 13.5 1.63636ZM14.4 10.6364C14.4 10.8534 14.3052 11.0615 14.1364 11.2149C13.9676 11.3683 13.7387 11.4545 13.5 11.4545H1.5C1.26131 11.4545 1.03239 11.3683 0.863604 11.2149C0.694821 11.0615 0.6 10.8534 0.6 10.6364V3C0.6 2.783 0.694821 2.5749 0.863604 2.42146C1.03239 2.26802 1.26131 2.18182 1.5 2.18182H3.9C3.9494 2.18185 3.99805 2.17078 4.04162 2.14961C4.08519 2.12844 4.12233 2.09781 4.14975 2.06045L5.25975 0.545455H9.73875L10.8502 2.06045C10.8777 2.09781 10.9148 2.12844 10.9584 2.14961C11.002 2.17078 11.0506 2.18185 11.1 2.18182H13.5C13.7387 2.18182 13.9676 2.26802 14.1364 2.42146C14.3052 2.5749 14.4 2.783 14.4 3V10.6364ZM7.5 3.81818C6.90666 3.81818 6.32664 3.97813 5.83329 4.27781C5.33994 4.57749 4.95542 5.00343 4.72836 5.50177C4.5013 6.00012 4.44189 6.54848 4.55764 7.07752C4.6734 7.60656 4.95912 8.09251 5.37868 8.47393C5.79824 8.85534 6.33279 9.11509 6.91473 9.22032C7.49667 9.32556 8.09987 9.27155 8.64805 9.06513C9.19623 8.8587 9.66476 8.50914 9.99441 8.06065C10.3241 7.61215 10.5 7.08486 10.5 6.54545C10.5 5.82214 10.1839 5.12844 9.62132 4.61698C9.05871 4.10552 8.29565 3.81818 7.5 3.81818ZM7.5 8.72727C7.02532 8.72727 6.56131 8.59931 6.16663 8.35957C5.77195 8.11983 5.46434 7.77907 5.28269 7.3804C5.10104 6.98172 5.05351 6.54303 5.14611 6.1198C5.23872 5.69657 5.4673 5.30781 5.80294 5.00268C6.13859 4.69754 6.56623 4.48975 7.03178 4.40556C7.49734 4.32137 7.9799 4.36458 8.41844 4.52972C8.85698 4.69485 9.23181 4.9745 9.49553 5.3333C9.75924 5.6921 9.9 6.11393 9.9 6.54545C9.9 7.12411 9.64714 7.67906 9.19706 8.08823C8.74697 8.4974 8.13652 8.72727 7.5 8.72727Z" fill="black"/>
</svg>
